<svg width="710" height="500" viewBox="0 0 710 500" fill="none" xmlns="http://www.w3.org/2000/svg">
<mask id="path-1-inside-1" fill="white">
<path fill-rule="evenodd" clip-rule="evenodd" d="M0 0H230H259.498H380L478.786 493.93L710 262.716V500H480H472.716H330L234.916 24.5818L0 259.499V0ZM0 500V265.608L234.392 500H0ZM710 0V262.391L447.609 0H710Z"/>
</mask>
<path fill-rule="evenodd" clip-rule="evenodd" d="M0 0H230H259.498H380L478.786 493.93L710 262.716V500H480H472.716H330L234.916 24.5818L0 259.499V0ZM0 500V265.608L234.392 500H0ZM710 0V262.391L447.609 0H710Z" fill="#D86410"/>
<path d="M0 0V-1H-1V0H0ZM380 0L380.981 -0.196116L380.82 -1H380V0ZM478.786 493.93L477.805 494.126L478.172 495.958L479.493 494.637L478.786 493.93ZM710 262.716H711V260.301L709.293 262.008L710 262.716ZM710 500V501H711V500H710ZM330 500L329.019 500.196L329.18 501H330V500ZM234.916 24.5818L235.897 24.3856L235.53 22.5534L234.209 23.8747L234.916 24.5818ZM0 259.499H-1V261.913L0.707108 260.206L0 259.499ZM0 265.608L0.707107 264.901L-1 263.194V265.608H0ZM0 500H-1V501H0V500ZM234.392 500V501H236.806L235.099 499.293L234.392 500ZM710 262.391L709.293 263.098L711 264.806V262.391H710ZM710 0H711V-1H710V0ZM447.609 0V-1H445.195L446.902 0.707106L447.609 0ZM230 -1H0V1H230V-1ZM230 1H259.498V-1H230V1ZM259.498 1H380V-1H259.498V1ZM379.019 0.196116L477.805 494.126L479.767 493.734L380.981 -0.196116L379.019 0.196116ZM709.293 262.008L478.079 493.223L479.493 494.637L710.707 263.423L709.293 262.008ZM711 500V262.716H709V500H711ZM480 501H710V499H480V501ZM480 499H472.716V501H480V499ZM472.716 499H330V501H472.716V499ZM330.981 499.804L235.897 24.3856L233.936 24.7779L329.019 500.196L330.981 499.804ZM0.707108 260.206L235.623 25.2889L234.209 23.8747L-0.707108 258.792L0.707108 260.206ZM-1 0V259.499H1V0H-1ZM-1 265.608V500H1V265.608H-1ZM235.099 499.293L0.707107 264.901L-0.707107 266.315L233.684 500.707L235.099 499.293ZM0 501H234.392V499H0V501ZM711 262.391V0H709V262.391H711ZM446.902 0.707106L709.293 263.098L710.707 261.684L448.316 -0.707106L446.902 0.707106ZM710 -1H447.609V1H710V-1Z" fill="white" mask="url(#path-1-inside-1)"/>
</svg>
